<?xml version="1.0" encoding="UTF-8"?>
<svg version="1.1" xmlns="http://www.w3.org/2000/svg" width="151" height="124">
<path d="M0 0 C1.59229179 -0.01925285 1.59229179 -0.01925285 3.2167511 -0.03889465 C4.93706795 -0.04997505 4.93706795 -0.04997505 6.69213867 -0.0612793 C8.46230598 -0.07338692 8.46230598 -0.07338692 10.26823425 -0.08573914 C12.76734956 -0.09957719 15.26648375 -0.11030059 17.765625 -0.11816406 C21.58459301 -0.13538301 25.40269681 -0.17927417 29.22143555 -0.22338867 C31.64916356 -0.2335151 34.07689892 -0.24203136 36.50463867 -0.2487793 C37.64544388 -0.26628738 38.78624908 -0.28379547 39.96162415 -0.30183411 C46.18762029 -0.28482679 50.11315761 -0.10764699 54.79760742 4.17700195 C56.3525644 7.28691591 56.03837698 10.61044244 56.11401367 14.02856445 C56.13479477 14.80259613 56.15557587 15.57662781 56.17698669 16.37411499 C56.2424419 18.84998587 56.30134829 21.32596397 56.36010742 23.80200195 C56.40329649 25.47909643 56.4469109 27.15618002 56.4909668 28.83325195 C56.59811913 32.94772503 56.69939787 37.06230609 56.79760742 41.17700195 C58.77760742 42.16700195 60.75760742 43.15700195 62.79760742 44.17700195 C62.24009023 48.16586804 61.01732937 50.48206999 58.74682617 53.7668457 C54.15796841 61.93197065 55.26119858 70.67381454 55.61010742 79.73950195 C55.69308158 82.35547262 55.76702143 84.9709547 55.82365417 87.58763123 C55.86034255 89.20516944 55.9130793 90.82244126 55.9835968 92.43885803 C56.04296875 94.63623047 56.04296875 94.63623047 55.79760742 98.17700195 C52.79760742 100.17700195 52.79760742 100.17700195 49.79760742 100.17700195 C49.30260742 87.80200195 49.30260742 87.80200195 48.79760742 75.17700195 C47.14760742 80.12700195 45.49760742 85.07700195 43.79760742 90.17700195 C44.12760742 90.17700195 44.45760742 90.17700195 44.79760742 90.17700195 C44.79760742 93.80700195 44.79760742 97.43700195 44.79760742 101.17700195 C42.81760742 100.68200195 42.81760742 100.68200195 40.79760742 100.17700195 C39.31260742 100.67200195 39.31260742 100.67200195 37.79760742 101.17700195 C37.46760742 100.84700195 37.13760742 100.51700195 36.79760742 100.17700195 C37.24863435 94.3523114 38.52920142 89.18542444 40.42260742 83.67700195 C40.68332031 82.90598145 40.9440332 82.13496094 41.21264648 81.34057617 C44.1744964 72.78198389 47.47382799 63.91422633 52.02416992 56.05981445 C53.07247922 53.50786961 52.7798513 51.64205543 52.42260742 48.92700195 C52.31174805 48.0349707 52.20088867 47.14293945 52.08666992 46.22387695 C51.9912793 45.5484082 51.89588867 44.87293945 51.79760742 44.17700195 C50.97260742 43.92950195 50.14760742 43.68200195 49.29760742 43.42700195 C45.86473517 42.20097615 42.8857604 40.67890415 39.72729492 38.8840332 C37.30885914 37.99792616 36.21379755 38.39055575 33.79760742 39.17700195 C31.46666208 39.52664375 29.1335598 39.86254682 26.79760742 40.17700195 C26.55397461 40.95043945 26.3103418 41.72387695 26.05932617 42.52075195 C24.74678275 46.32428337 23.27525543 50.03586661 21.77587891 53.76855469 C16.84647794 66.06676489 12.6277681 78.49649441 8.79760742 91.17700195 C7.47760742 90.84700195 6.15760742 90.51700195 4.79760742 90.17700195 C4.79760742 89.51700195 4.79760742 88.85700195 4.79760742 88.17700195 C3.82823242 88.03262695 2.85885742 87.88825195 1.86010742 87.73950195 C-1.20239258 87.17700195 -1.20239258 87.17700195 -2.20239258 86.17700195 C-2.3316758 84.01041364 -2.39097631 81.83963077 -2.42358398 79.66943359 C-2.43508987 78.98975021 -2.44659576 78.31006683 -2.45845032 77.60978699 C-2.49527477 75.35229074 -2.52483724 73.09476609 -2.55395508 70.8371582 C-2.57705878 69.27395718 -2.600449 67.71076036 -2.62411499 66.14756775 C-2.67263731 62.86648126 -2.71755797 59.5853697 -2.76000977 56.30419922 C-2.81480232 52.09269503 -2.8786336 47.88138535 -2.94518471 43.67005253 C-2.99520336 40.44026963 -3.04035277 37.21043277 -3.08402634 33.9805584 C-3.10563258 32.42755374 -3.12878596 30.87456984 -3.15349197 29.3216114 C-3.18728615 27.15242799 -3.2145189 24.98325977 -3.23999023 22.81396484 C-3.25695953 21.57787979 -3.27392883 20.34179474 -3.29141235 19.06825256 C-3.20239258 16.17700195 -3.20239258 16.17700195 -2.20239258 14.17700195 C1.42760742 14.17700195 5.05760742 14.17700195 8.79760742 14.17700195 C8.13760742 12.52700195 7.47760742 10.87700195 6.79760742 9.17700195 C9.16328964 6.81131973 9.64992968 6.92128491 12.86010742 6.91137695 C14.05506836 6.90750977 14.05506836 6.90750977 15.27416992 6.90356445 C16.1069043 6.91129883 16.93963867 6.9190332 17.79760742 6.92700195 C18.6303418 6.91926758 19.46307617 6.9115332 20.32104492 6.90356445 C21.11768555 6.90614258 21.91432617 6.9087207 22.73510742 6.91137695 C23.46600586 6.91363281 24.1969043 6.91588867 24.94995117 6.91821289 C26.79760742 7.17700195 26.79760742 7.17700195 28.79760742 9.17700195 C28.42260742 11.30200195 28.42260742 11.30200195 27.79760742 13.17700195 C28.78760742 13.50700195 29.77760742 13.83700195 30.79760742 14.17700195 C30.30260742 11.70200195 30.30260742 11.70200195 29.79760742 9.17700195 C31.67260742 8.11450195 31.67260742 8.11450195 33.79760742 7.17700195 C34.78760742 7.67200195 34.78760742 7.67200195 35.79760742 8.17700195 C35.46760742 10.15700195 35.13760742 12.13700195 34.79760742 14.17700195 C38.09760742 14.17700195 41.39760742 14.17700195 44.79760742 14.17700195 C45.12760742 21.43700195 45.45760742 28.69700195 45.79760742 36.17700195 C47.11760742 36.83700195 48.43760742 37.49700195 49.79760742 38.17700195 C49.46760742 28.27700195 49.13760742 18.37700195 48.79760742 8.17700195 C45.90102221 7.21147355 44.02090522 7.03994785 41.0065918 7.01586914 C40.03548462 7.0062616 39.06437744 6.99665405 38.06384277 6.98675537 C37.01692261 6.98250549 35.97000244 6.97825562 34.89135742 6.97387695 C33.81511108 6.96817688 32.73886475 6.96247681 31.63000488 6.956604 C29.35368839 6.94715614 27.07735823 6.94062087 24.80102539 6.93676758 C21.3113644 6.9270403 17.82228695 6.89600562 14.33276367 6.86450195 C12.12313176 6.85797406 9.91349563 6.85272275 7.70385742 6.84887695 C6.65693726 6.83653015 5.61001709 6.82418335 4.53137207 6.8114624 C3.0747113 6.81596405 3.0747113 6.81596405 1.58862305 6.82055664 C0.30646912 6.8150882 0.30646912 6.8150882 -1.00158691 6.80950928 C-3.22879233 7.03886836 -3.22879233 7.03886836 -4.97679138 8.27262878 C-6.8343337 11.15892961 -6.58918328 13.59440982 -6.60302734 17.00341797 C-6.61000641 17.69314697 -6.61698547 18.38287598 -6.62417603 19.09350586 C-6.64416799 21.37276396 -6.64365261 23.65157019 -6.64379883 25.9309082 C-6.65556701 27.51367927 -6.66892986 29.09643921 -6.68382263 30.67918396 C-6.72003549 34.84588775 -6.74021972 39.01249298 -6.75537109 43.17932129 C-6.78018997 49.85273471 -6.81972721 56.52593036 -6.87727165 63.19914055 C-6.8936422 65.53357355 -6.89738195 67.86780234 -6.90028381 70.20228577 C-6.91005672 71.62818763 -6.92031944 73.05408626 -6.93115234 74.47998047 C-6.9354274 75.727798 -6.93970245 76.97561554 -6.94410706 78.26124573 C-7.20239258 81.17700195 -7.20239258 81.17700195 -9.20239258 83.17700195 C8.81403995 94.96848769 30.30049003 104.88758635 52.36010742 100.42700195 C55.97528564 99.11239169 57.65101162 98.35396375 59.79760742 95.17700195 C61.75605316 88.77941254 59.76557709 83.32551737 57.79760742 77.17700195 C58.45760742 76.51700195 59.11760742 75.85700195 59.79760742 75.17700195 C61.09298568 76.92425635 62.38377015 78.67491712 63.67260742 80.42700195 C64.75155273 81.88879883 64.75155273 81.88879883 65.85229492 83.38012695 C70.03712978 89.39687747 70.47071771 93.89221163 69.79760742 101.17700195 C68.02974879 105.96061942 64.16182705 108.73679313 59.79760742 111.17700195 C59.10924805 111.33168945 58.42088867 111.48637695 57.71166992 111.64575195 C54.95693895 112.41033034 54.04168799 114.37249441 52.34838867 116.5480957 C47.66925532 121.46295365 41.14360628 123.98709514 34.45240784 124.27947998 C33.64665817 124.26854309 32.84090851 124.2576062 32.01074219 124.24633789 C30.62889488 124.23071808 30.62889488 124.23071808 29.21913147 124.21478271 C28.2356926 124.19715881 27.25225372 124.17953491 26.23901367 124.16137695 C25.21710434 124.14488098 24.19519501 124.12838501 23.14231873 124.11138916 C20.98463554 124.07395894 18.82700432 124.03342154 16.66943359 123.98999023 C13.37562965 123.9272974 10.08197953 123.88581831 6.7878418 123.8449707 C4.68820766 123.80591519 2.58859664 123.76559264 0.48901367 123.72387695 C-0.98310829 123.70958649 -0.98310829 123.70958649 -2.48497009 123.69500732 C-7.75619747 123.56372698 -11.69812859 123.22483213 -16.20239258 120.17700195 C-16.88301758 119.12512695 -17.56364258 118.07325195 -18.26489258 116.98950195 C-18.90426758 116.06137695 -19.54364258 115.13325195 -20.20239258 114.17700195 C-22.7442926 113.92692465 -22.7442926 113.92692465 -25.20239258 114.17700195 C-27.01489258 112.98950195 -27.01489258 112.98950195 -28.20239258 111.17700195 C-28.38989258 108.48950195 -28.38989258 108.48950195 -28.20239258 106.17700195 C-27.63649414 106.0068457 -27.0705957 105.83668945 -26.48754883 105.66137695 C-25.75407227 105.4190332 -25.0205957 105.17668945 -24.26489258 104.92700195 C-23.53399414 104.6949707 -22.8030957 104.46293945 -22.05004883 104.22387695 C-19.99668702 103.32624665 -19.99668702 103.32624665 -19.44848633 101.06762695 C-19.36727539 100.4437207 -19.28606445 99.81981445 -19.20239258 99.17700195 C-20.23299805 99.22920898 -20.23299805 99.22920898 -21.28442383 99.2824707 C-22.18547852 99.30954102 -23.0865332 99.33661133 -24.01489258 99.36450195 C-25.35487305 99.41670898 -25.35487305 99.41670898 -26.72192383 99.4699707 C-29.20239258 99.17700195 -29.20239258 99.17700195 -31.01489258 97.83325195 C-32.63806298 95.56935639 -32.42268398 93.89392924 -32.20239258 91.17700195 C-28.08181798 89.1791476 -24.75044893 88.9986468 -20.20239258 89.17700195 C-21.61940792 85.89473172 -23.32182206 83.94806424 -25.95239258 81.55200195 C-31.53793004 76.10864181 -36.71045355 68.96823912 -38.20239258 61.17700195 C-38.25777712 56.74623887 -37.8061682 53.26379808 -35.63989258 49.36450195 C-32.53022762 46.57377699 -29.20912803 44.44401891 -25.20239258 43.17700195 C-24.21239258 43.50700195 -23.22239258 43.83700195 -22.20239258 44.17700195 C-23.20239258 47.17700195 -23.20239258 47.17700195 -25.76489258 49.36450195 C-28.36263158 52.36189311 -28.9465116 53.96581696 -28.69848633 57.91918945 C-27.39285946 63.86133379 -24.46448858 68.91490595 -20.20239258 73.17700195 C-20.20239258 61.29700195 -20.20239258 49.41700195 -20.20239258 37.17700195 C-23.83239258 37.17700195 -27.46239258 37.17700195 -31.20239258 37.17700195 C-34.38989258 35.67700195 -34.38989258 35.67700195 -36.20239258 34.17700195 C-35.62894321 31.30975509 -35.34094107 30.31555045 -33.20239258 28.17700195 C-30.16333008 27.76293945 -30.16333008 27.76293945 -26.57739258 27.55200195 C-25.38887695 27.47723633 -24.20036133 27.4024707 -22.97583008 27.32543945 C-22.0605957 27.27645508 -21.14536133 27.2274707 -20.20239258 27.17700195 C-20.53239258 25.85700195 -20.86239258 24.53700195 -21.20239258 23.17700195 C-22.03383789 23.13961914 -22.8652832 23.10223633 -23.72192383 23.0637207 C-24.80860352 22.99797852 -25.8952832 22.93223633 -27.01489258 22.86450195 C-28.09383789 22.80649414 -29.1727832 22.74848633 -30.28442383 22.6887207 C-33.20239258 22.17700195 -33.20239258 22.17700195 -35.10473633 20.76293945 C-36.20239258 19.17700195 -36.20239258 19.17700195 -35.95239258 17.11450195 C-35.20239258 15.17700195 -35.20239258 15.17700195 -34.20239258 13.17700195 C-31.06831369 12.98041317 -27.9758551 12.90840317 -24.8371582 12.9621582 C-22.54748123 12.96160248 -22.54748123 12.96160248 -19.20239258 12.17700195 C-16.87176563 9.36859491 -16.87176563 9.36859491 -15.20239258 6.17700195 C-13.38598633 4.5324707 -13.38598633 4.5324707 -11.63989258 3.36450195 C-11.06110352 2.96618164 -10.48231445 2.56786133 -9.88598633 2.1574707 C-6.57181015 0.22740523 -3.74465755 0.03944506 0 0 Z M19.79760742 13.17700195 C19.79760742 13.50700195 19.79760742 13.83700195 19.79760742 14.17700195 C21.44760742 14.17700195 23.09760742 14.17700195 24.79760742 14.17700195 C24.79760742 13.84700195 24.79760742 13.51700195 24.79760742 13.17700195 C23.14760742 13.17700195 21.49760742 13.17700195 19.79760742 13.17700195 Z M0.79760742 19.17700195 C0.78086449 21.03283418 0.83485135 22.88939558 0.91870117 24.7434082 C0.96704102 25.86811523 1.01538086 26.99282227 1.06518555 28.15161133 C1.12125977 29.33561523 1.17733398 30.51961914 1.23510742 31.73950195 C1.28731445 32.92737305 1.33952148 34.11524414 1.39331055 35.33911133 C1.52346402 38.28531261 1.65844383 41.23121471 1.79760742 44.17700195 C3.51552882 40.91233993 4.31406703 38.07824431 4.92260742 34.42700195 C5.09018555 33.4421582 5.25776367 32.45731445 5.43041992 31.44262695 C5.5515918 30.6949707 5.67276367 29.94731445 5.79760742 29.17700195 C6.31194336 29.34200195 6.8262793 29.50700195 7.35620117 29.67700195 C10.56396111 30.33395119 13.58855785 30.2320438 16.86010742 30.17700195 C23.46494009 30.06611284 23.46494009 30.06611284 26.79760742 31.17700195 C27.4240918 30.99266602 28.05057617 30.80833008 28.69604492 30.6184082 C31.53153907 30.02284902 32.85851609 30.84103184 35.42260742 32.11450195 C38.47644556 33.71166838 38.47644556 33.71166838 41.79760742 34.17700195 C41.46760742 28.89700195 41.13760742 23.61700195 40.79760742 18.17700195 C35.26172209 18.1523542 29.72586842 18.134167 24.18994141 18.12207031 C22.30517013 18.11702951 20.42040277 18.11019697 18.53564453 18.1015625 C15.83259106 18.08948578 13.12958911 18.08377127 10.42651367 18.0793457 C9.57859756 18.07418442 8.73068146 18.06902313 7.85707092 18.06370544 C4.01850708 17.68274113 4.01850708 17.68274113 0.79760742 19.17700195 Z M41.79760742 93.17700195 C42.79760742 95.17700195 42.79760742 95.17700195 42.79760742 95.17700195 Z M-7.20239258 97.17700195 C-7.28373049 99.09296164 -7.34173625 101.00992127 -7.38989258 102.92700195 C-7.42469727 103.9943457 -7.45950195 105.06168945 -7.49536133 106.16137695 C-7.15169557 109.69884314 -6.81612727 110.78468393 -4.20239258 113.17700195 C-1.27737106 113.53243019 1.2654671 113.64353621 4.18432617 113.56762695 C5.00133499 113.56196716 5.81834381 113.55630737 6.66011047 113.55047607 C9.26903945 113.52808893 11.87659378 113.47789041 14.48510742 113.42700195 C16.25396779 113.40693988 18.02284969 113.38868859 19.79174805 113.37231445 C24.12756398 113.32821675 28.46235267 113.25917489 32.79760742 113.17700195 C31.8799923 110.76663503 31.8799923 110.76663503 28.41088867 109.95825195 C26.97963054 109.52340559 25.54588874 109.09667231 24.11010742 108.67700195 C22.68939018 108.25039896 21.268815 107.82332257 19.84838867 107.39575195 C19.15648438 107.19191895 18.46458008 106.98808594 17.75170898 106.77807617 C16.04136728 106.25198156 14.35586001 105.64649665 12.67651367 105.02856445 C9.45397714 104.07535826 6.77458375 103.97751359 3.42260742 104.05200195 C2.36299805 104.07004883 1.30338867 104.0880957 0.21166992 104.10668945 C-0.5849707 104.12989258 -1.38161133 104.1530957 -2.20239258 104.17700195 C-2.16114258 103.39325195 -2.11989258 102.60950195 -2.07739258 101.80200195 C-1.91510524 99.01584076 -1.91510524 99.01584076 -4.20239258 97.17700195 C-5.19239258 97.17700195 -6.18239258 97.17700195 -7.20239258 97.17700195 Z " fill="#1C6988" transform="translate(60.202392578125,-0.177001953125)"/>
<path d="M0 0 C1.19496094 -0.00386719 1.19496094 -0.00386719 2.4140625 -0.0078125 C3.66316406 0.00378906 3.66316406 0.00378906 4.9375 0.015625 C5.77023438 0.00789062 6.60296875 0.00015625 7.4609375 -0.0078125 C8.25757812 -0.00523437 9.05421875 -0.00265625 9.875 0 C10.60589844 0.00225586 11.33679688 0.00451172 12.08984375 0.00683594 C13.9375 0.265625 13.9375 0.265625 15.9375 2.265625 C15.5625 4.390625 15.5625 4.390625 14.9375 6.265625 C16.4225 6.760625 16.4225 6.760625 17.9375 7.265625 C17.4425 4.790625 17.4425 4.790625 16.9375 2.265625 C18.8125 1.203125 18.8125 1.203125 20.9375 0.265625 C21.5975 0.595625 22.2575 0.925625 22.9375 1.265625 C22.6075 3.245625 22.2775 5.225625 21.9375 7.265625 C25.2375 7.265625 28.5375 7.265625 31.9375 7.265625 C32.4325 18.650625 32.4325 18.650625 32.9375 30.265625 C28.42784112 29.36369322 25.86046742 28.29254807 22 26.10546875 C19.53091631 25.10006536 17.5810342 25.2071036 14.9375 25.265625 C6.03725512 44.06052484 -1.83240795 63.10224382 -7.0625 83.265625 C-7.3925 82.605625 -7.7225 81.945625 -8.0625 81.265625 C-10.05535937 80.89196387 -12.05613529 80.55821985 -14.0625 80.265625 C-15.93000786 78.39811714 -15.24620796 75.25275994 -15.28369141 72.75805664 C-15.2951973 72.07837326 -15.30670319 71.39868988 -15.31855774 70.69841003 C-15.35538219 68.44091379 -15.38494466 66.18338913 -15.4140625 63.92578125 C-15.43716621 62.36258022 -15.46055642 60.79938341 -15.48422241 59.2361908 C-15.53274473 55.95510431 -15.5776654 52.67399274 -15.62011719 49.39282227 C-15.67490974 45.18131807 -15.73874102 40.97000839 -15.80529213 36.75867558 C-15.85531078 33.52889268 -15.90046019 30.29905582 -15.94413376 27.06918144 C-15.96574 25.51617679 -15.98889338 23.96319288 -16.0135994 22.41023445 C-16.04739357 20.24105104 -16.07462633 18.07188281 -16.10009766 15.90258789 C-16.12555161 14.04846031 -16.12555161 14.04846031 -16.15151978 12.15687561 C-16.0625 9.265625 -16.0625 9.265625 -15.0625 7.265625 C-11.4325 7.265625 -7.8025 7.265625 -4.0625 7.265625 C-4.7225 5.615625 -5.3825 3.965625 -6.0625 2.265625 C-3.69681778 -0.10005722 -3.21017774 0.00990796 0 0 Z M6.9375 6.265625 C6.9375 6.595625 6.9375 6.925625 6.9375 7.265625 C8.5875 7.265625 10.2375 7.265625 11.9375 7.265625 C11.9375 6.935625 11.9375 6.605625 11.9375 6.265625 C10.2875 6.265625 8.6375 6.265625 6.9375 6.265625 Z M-12.0625 12.265625 C-12.07924294 14.12145723 -12.02525607 15.97801863 -11.94140625 17.83203125 C-11.89306641 18.95673828 -11.84472656 20.08144531 -11.79492188 21.24023438 C-11.73884766 22.42423828 -11.68277344 23.60824219 -11.625 24.828125 C-11.57279297 26.01599609 -11.52058594 27.20386719 -11.46679688 28.42773438 C-11.3366434 31.37393566 -11.2016636 34.31983776 -11.0625 37.265625 C-9.3445786 34.00096298 -8.54604039 31.16686736 -7.9375 27.515625 C-7.76992187 26.53078125 -7.60234375 25.5459375 -7.4296875 24.53125 C-7.30851562 23.78359375 -7.18734375 23.0359375 -7.0625 22.265625 C-6.54816406 22.430625 -6.03382812 22.595625 -5.50390625 22.765625 C-2.29614632 23.42257423 0.72845042 23.32066684 4 23.265625 C10.60483267 23.15473589 10.60483267 23.15473589 13.9375 24.265625 C14.56398438 24.08128906 15.19046875 23.89695312 15.8359375 23.70703125 C18.67143165 23.11147207 19.99840867 23.92965489 22.5625 25.203125 C25.61633814 26.80029143 25.61633814 26.80029143 28.9375 27.265625 C28.6075 21.985625 28.2775 16.705625 27.9375 11.265625 C22.40161467 11.24097725 16.865761 11.22279004 11.32983398 11.21069336 C9.4450627 11.20565256 7.56029535 11.19882002 5.67553711 11.19018555 C2.97248364 11.17810883 0.26948169 11.17239432 -2.43359375 11.16796875 C-3.28150986 11.16280746 -4.12942596 11.15764618 -5.0030365 11.15232849 C-8.84160034 10.77136418 -8.84160034 10.77136418 -12.0625 12.265625 Z " fill="#083649" transform="translate(73.0625,6.734375)"/>
<path d="M0 0 C0.0256954 7.48493706 0.0430091 14.96986245 0.05493164 22.45483398 C0.05991048 24.99259872 0.06669597 27.53036067 0.07543945 30.06811523 C0.12469064 44.74786714 0.00779471 59.35118689 -1 74 C-4.93303567 72.68898811 -7.57644071 71.42450449 -10 68 C-10.34890086 64.97094023 -10.46754756 62.31696713 -10.390625 59.296875 C-10.38496521 58.45908508 -10.37930542 57.62129517 -10.37347412 56.75811768 C-10.35112329 54.08815834 -10.30093098 51.41955213 -10.25 48.75 C-10.22993325 46.93751941 -10.21168278 45.12501774 -10.1953125 43.3125 C-10.15126294 38.87448041 -10.08224566 34.43746944 -10 30 C-11.60681641 30.01740234 -11.60681641 30.01740234 -13.24609375 30.03515625 C-14.64322743 30.04453299 -16.04036299 30.05363331 -17.4375 30.0625 C-18.14455078 30.07087891 -18.85160156 30.07925781 -19.58007812 30.08789062 C-21.38693559 30.09653588 -23.19387603 30.05220011 -25 30 C-26 29 -26 29 -26.125 26.5 C-26 24 -26 24 -25 23 C-22.81707226 22.76518307 -20.62796826 22.58636677 -18.4375 22.4375 C-16.64119141 22.31181641 -16.64119141 22.31181641 -14.80859375 22.18359375 C-13.88175781 22.12300781 -12.95492187 22.06242187 -12 22 C-12.33 20.68 -12.66 19.36 -13 18 C-13.83144531 17.96261719 -14.66289063 17.92523437 -15.51953125 17.88671875 C-16.60621094 17.82097656 -17.69289063 17.75523438 -18.8125 17.6875 C-19.89144531 17.62949219 -20.97039063 17.57148438 -22.08203125 17.51171875 C-25 17 -25 17 -26.90234375 15.5859375 C-28 14 -28 14 -27.75 11.9375 C-27 10 -27 10 -26 8 C-22.86592111 7.80341122 -19.77346252 7.73140121 -16.63476562 7.78515625 C-14.34508865 7.78460053 -14.34508865 7.78460053 -11 7 C-8.60004437 4.11457297 -8.60004437 4.11457297 -7 1 C-4.44629839 -0.08338856 -2.80773085 0 0 0 Z " fill="#248EB7" transform="translate(52,5)"/>
<path d="M0 0 C5.78636353 0.5163684 10.18904363 2.19174269 15.375 4.75 C16.1187085 5.10835937 16.86241699 5.46671875 17.62866211 5.8359375 C22.85905577 8.37770424 27.97250493 11.07491196 33 14 C33.54284085 18.23415863 32.93733952 20.2094667 30.48828125 23.5078125 C26.17774083 31.00483644 27.59787034 40.08877556 27.875 48.4375 C27.95047726 51.0669451 28.01839112 53.69588583 28.06838989 56.32594299 C28.10040055 57.9545328 28.14763577 59.58290958 28.2116394 61.21055603 C28.26123047 63.42749023 28.26123047 63.42749023 28 67 C25 69 25 69 22 69 C21.505 56.625 21.505 56.625 21 44 C19.35 48.95 17.7 53.9 16 59 C16.33 59 16.66 59 17 59 C17 62.63 17 66.26 17 70 C15.68 69.67 14.36 69.34 13 69 C12.01 69.33 11.02 69.66 10 70 C9.505 69.505 9.505 69.505 9 69 C9.45102692 63.17530945 10.731594 58.00842249 12.625 52.5 C13.01606934 51.34346924 13.01606934 51.34346924 13.41503906 50.16357422 C16.37688897 41.60498194 19.67622056 32.73722438 24.2265625 24.8828125 C25.27487179 22.33086765 24.98224388 20.46505348 24.625 17.75 C24.51414063 16.85796875 24.40328125 15.9659375 24.2890625 15.046875 C24.19367188 14.37140625 24.09828125 13.6959375 24 13 C23.175 12.7525 22.35 12.505 21.5 12.25 C18.06712775 11.0239742 15.08815298 9.5019022 11.9296875 7.70703125 C9.51125172 6.82092421 8.41619013 7.2135538 6 8 C3.66905466 8.3496418 1.33595238 8.68554487 -1 9 C-1.24363281 9.7734375 -1.48726562 10.546875 -1.73828125 11.34375 C-3.05082468 15.14728142 -4.52235199 18.85886466 -6.02172852 22.59155273 C-10.95112948 34.88976294 -15.16983932 47.31949246 -19 60 C-19.99 60 -20.98 60 -22 60 C-20.32685327 46.68311788 -15.51483321 34.37025725 -10.5 22 C-10.0373877 20.85499023 -9.57477539 19.70998047 -9.09814453 18.53027344 C-6.44571658 12.10247811 -3.55964104 5.9764906 0 0 Z M14 62 C15 64 15 64 15 64 Z " fill="#456B7D" transform="translate(88,31)"/>
<path d="M0 0 C5.4044737 4.76865326 10.27737851 10.6467883 11.484375 17.91796875 C11.62094955 22.97805596 11.46541784 27.05659349 8 31 C7.0409375 32.11375 7.0409375 32.11375 6.0625 33.25 C1.23371836 36.0093038 -3.51824166 35.86310484 -9 36 C-9.69367676 36.02046387 -10.38735352 36.04092773 -11.10205078 36.06201172 C-13.33893487 36.12169484 -15.5750089 36.15922669 -17.8125 36.1875 C-18.51729492 36.20071289 -19.22208984 36.21392578 -19.94824219 36.22753906 C-24.63937427 36.23417433 -28.55734838 35.46327527 -33 34 C-33.84046875 33.7421875 -34.6809375 33.484375 -35.546875 33.21875 C-36.27390625 32.9815625 -37.0009375 32.744375 -37.75 32.5 C-38.48734375 32.2628125 -39.2246875 32.025625 -39.984375 31.78125 C-42 31 -42 31 -45 29 C-49.28785528 26.91732743 -53.30727074 26.4772267 -58 26 C-57.34 24.02 -56.68 22.04 -56 20 C-47.90044833 19.12384657 -41.28149291 21.23105163 -33.734375 23.80859375 C-23.99929095 26.91445216 -12.69825263 27.52663732 -3 24 C0.08617706 21.86341588 0.83889696 20.52626993 1.9375 16.9375 C2.01047779 12.33989906 0.98644803 8.70765008 -0.40625 4.35546875 C-1 2 -1 2 0 0 Z " fill="#2291BA" transform="translate(119,75)"/>
<path d="M0 0 C2.97 0.495 2.97 0.495 6 1 C6 2.98 6 4.96 6 7 C6.66 7 7.32 7 8 7 C8 6.34 8 5.68 8 5 C11.14737182 5.69941596 14.02588876 6.76078698 17 8 C16.34 9.32 15.68 10.64 15 12 C13.35 12 11.7 12 10 12 C10.33 18.27 10.66 24.54 11 31 C13.52744088 32.26372044 15.26380308 32.12022795 18.09228516 32.11352539 C19.15323395 32.11344986 20.21418274 32.11337433 21.30728149 32.11329651 C22.45626923 32.10813522 23.60525696 32.10297394 24.7890625 32.09765625 C26.54940323 32.09553383 26.54940323 32.09553383 28.3453064 32.09336853 C32.10522985 32.08775689 35.86509445 32.07520238 39.625 32.0625 C42.16926998 32.0574865 44.71354088 32.05292333 47.2578125 32.04882812 C53.50522853 32.03778368 59.75261006 32.02103418 66 32 C66.495 33.98 66.495 33.98 67 36 C65.68 36 64.36 36 63 36 C63 36.99 63 37.98 63 39 C55.24040422 39.02533375 47.48081908 39.04286004 39.72119141 39.05493164 C37.08088787 39.05996357 34.44058713 39.06678971 31.80029297 39.07543945 C28.00747998 39.08755479 24.2147038 39.0932397 20.421875 39.09765625 C19.23946228 39.10281754 18.05704956 39.10797882 16.83880615 39.11329651 C15.1875473 39.11340981 15.1875473 39.11340981 13.50292969 39.11352539 C12.05064972 39.11685631 12.05064972 39.11685631 10.56903076 39.12025452 C8.19845685 39.00928963 6.2351304 38.78990324 4 38 C2.953125 36.15234375 2.953125 36.15234375 2.25 33.9375 C1.88648438 32.83728516 1.88648438 32.83728516 1.515625 31.71484375 C1.26039062 30.86599609 1.26039062 30.86599609 1 30 C-1.64 29.67 -4.28 29.34 -7 29 C-6.67 27.68 -6.34 26.36 -6 25 C-2.535 24.505 -2.535 24.505 1 24 C2.00217064 20.41672247 2.00217064 20.41672247 1 17 C0.875 13.4375 0.875 13.4375 1 10 C1.33 9.67 1.66 9.34 2 9 C2.36760731 6.67182036 2.70241581 4.3381615 3 2 C2.01 1.67 1.02 1.34 0 1 C0 0.67 0 0.34 0 0 Z " fill="#2292BE" transform="translate(41,82)"/>
<path d="M0 0 C5.61 0.33 11.22 0.66 17 1 C17 9.99481865 17 9.99481865 14.734375 15.265625 C14.25613281 16.40386719 13.77789062 17.54210937 13.28515625 18.71484375 C12.77855469 19.88144531 12.27195312 21.04804687 11.75 22.25 C8.12776936 30.73990016 4.76806819 39.18958849 2 48 C1.67 48 1.34 48 1 48 C1.14148989 46.3954444 1.28835686 44.79136233 1.4375 43.1875 C1.51871094 42.29417969 1.59992188 41.40085938 1.68359375 40.48046875 C2 38 2 38 3 35 C2.34 35 1.68 35 1 35 C0.87625 36.258125 0.7525 37.51625 0.625 38.8125 C0.02638195 44.26079179 -0.96426426 49.62020754 -2 55 C-2.33 55 -2.66 55 -3 55 C-3.05036085 50.18434077 -3.08616083 45.36884288 -3.10986328 40.55297852 C-3.11976961 38.92306847 -3.1332984 37.29317542 -3.15087891 35.66333008 C-3.45275174 6.90550348 -3.45275174 6.90550348 0 0 Z " fill="#278DB5" transform="translate(66,29)"/>
<path d="M0 0 C3.07811203 2.69334803 3.86369213 4.50020448 4.9375 8.4375 C5.02225543 13.26855946 3.39233449 15.87485788 0.8125 19.8125 C-2.21706532 21.79738762 -5.46248017 22.11389742 -9 22 C-13.1558069 20.51018243 -15.87378494 18.91671195 -18 15 C-19.3528916 11.03151797 -19.08842168 8.56146799 -17.4375 4.8125 C-15.90170401 2.09090235 -14.82750637 0.86360968 -12.3125 -1.125 C-7.7588969 -2.32783855 -4.33020875 -1.80288159 0 0 Z M-9 7 C-8 9 -8 9 -8 9 Z M-8 9 C-7.67 9.99 -7.34 10.98 -7 12 C-6.67 11.01 -6.34 10.02 -6 9 C-6.66 9 -7.32 9 -8 9 Z M-5 12 C-4 14 -4 14 -4 14 Z M-9 13 C-9 16 -9 16 -9 16 Z " fill="#508091" transform="translate(96,64)"/>
<path d="M0 0 C5.78636353 0.5163684 10.18904363 2.19174269 15.375 4.75 C16.1187085 5.10835937 16.86241699 5.46671875 17.62866211 5.8359375 C22.85905577 8.37770424 27.97250493 11.07491196 33 14 C32.67 15.65 32.34 17.3 32 19 C28.71303767 19.79953138 27.28976808 20.09658936 24 19 C24 17.02 24 15.04 24 13 C23.175 12.7525 22.35 12.505 21.5 12.25 C18.06712775 11.0239742 15.08815298 9.5019022 11.9296875 7.70703125 C9.51125172 6.82092421 8.41619013 7.2135538 6 8 C3.66905466 8.3496418 1.33595238 8.68554487 -1 9 C-1.24363281 9.7734375 -1.48726562 10.546875 -1.73828125 11.34375 C-3.05082468 15.14728142 -4.52235199 18.85886466 -6.02172852 22.59155273 C-10.95112948 34.88976294 -15.16983932 47.31949246 -19 60 C-19.99 60 -20.98 60 -22 60 C-20.32685327 46.68311788 -15.51483321 34.37025725 -10.5 22 C-10.0373877 20.85499023 -9.57477539 19.70998047 -9.09814453 18.53027344 C-6.44571658 12.10247811 -3.55964104 5.9764906 0 0 Z " fill="#56889D" transform="translate(88,31)"/>
<path d="M0 0 C0.17273438 0.64453125 0.34546875 1.2890625 0.5234375 1.953125 C1.92982628 4.40445882 1.92982628 4.40445882 5.4765625 4.609375 C6.858573 4.67581781 8.2416781 4.7219252 9.625 4.75 C10.33140625 4.77964844 11.0378125 4.80929688 11.765625 4.83984375 C13.50980047 4.91055357 15.25490827 4.95754035 17 5 C17.00410889 6.11971191 17.00821777 7.23942383 17.01245117 8.39306641 C17.03429358 12.56442719 17.08863545 16.73485154 17.15258789 20.90576172 C17.17572354 22.70775346 17.19015319 24.50987957 17.19555664 26.31201172 C17.20487904 28.90937603 17.24593792 31.50464001 17.29296875 34.1015625 C17.2890361 34.9017984 17.28510345 35.7020343 17.28105164 36.52651978 C17.43125301 42.34044095 18.87668512 44.89677085 23 49 C21.3125 49.8125 21.3125 49.8125 19 50 C16.375 47.6875 16.375 47.6875 14 45 C11.4345406 42.4345406 9.52313332 42.45953913 6 42 C6 42.99 6 43.98 6 45 C1.84973415 43.25984661 0.65593984 41.34084092 -1.171875 37.3515625 C-3.04073595 32.04470264 -3.59998068 27.11993174 -2.0625 21.6875 C1.51274478 17.02884771 6.25308079 14.19566775 12 13 C12 14.32 12 15.64 12 17 C11.175 17.7425 10.35 18.485 9.5 19.25 C6.68420052 21.85053095 6.68420052 21.85053095 6.375 25.6875 C6.79454923 32.37486052 10.36651837 38.36651837 15 43 C15 31.12 15 19.24 15 7 C11.37 7 7.74 7 4 7 C0.8125 5.5 0.8125 5.5 -1 4 C-0.67 2.68 -0.34 1.36 0 0 Z " fill="#297B9B" transform="translate(25,30)"/>
<path d="M0 0 C2.31 0 4.62 0 7 0 C7.33 2.97 7.66 5.94 8 9 C11.63 9 15.26 9 19 9 C19 9.33 19 9.66 19 10 C15.04 10 11.08 10 7 10 C6.5978125 8.5459375 6.5978125 8.5459375 6.1875 7.0625 C5.795625 6.051875 5.40375 5.04125 5 4 C4.01 3.67 3.02 3.34 2 3 C2.1141866 4.93816735 2.24173423 6.87555099 2.375 8.8125 C2.44460937 9.89144531 2.51421875 10.97039062 2.5859375 12.08203125 C2.81195733 15.18626186 2.81195733 15.18626186 5 18 C7.76628915 18.2667616 10.30619631 18.34804189 13.0703125 18.29296875 C13.86654022 18.28872391 14.66276794 18.28447906 15.48312378 18.28010559 C18.03075729 18.26328834 20.57760489 18.22563179 23.125 18.1875 C24.85024901 18.17245705 26.57551039 18.15876796 28.30078125 18.14648438 C32.53415782 18.11337501 36.76694559 18.06157285 41 18 C39.68 17.34 38.36 16.68 37 16 C47.56 16 58.12 16 69 16 C67.68 16.66 66.36 17.32 65 18 C64.278125 18.928125 63.55625 19.85625 62.8125 20.8125 C58.60958488 26.12144541 52.57078077 28.90702029 46 30 C44.40031443 30.06512448 42.79803807 30.08108385 41.19726562 30.0534668 C39.81057678 30.03300545 39.81057678 30.03300545 38.39587402 30.01213074 C36.91601013 29.9809893 36.91601013 29.9809893 35.40625 29.94921875 C34.38196899 29.9303511 33.35768799 29.91148346 32.30236816 29.89204407 C30.14048641 29.85024217 27.97865955 29.80551316 25.81689453 29.75805664 C22.51215261 29.68775851 19.20739703 29.63344891 15.90234375 29.58007812 C13.79945914 29.5374345 11.69659344 29.49384639 9.59375 29.44921875 C8.60717407 29.43453049 7.62059814 29.41984222 6.60412598 29.40470886 C-1.85226674 29.19342801 -1.85226674 29.19342801 -6 27 C-2.75011491 26.02145916 0.11728983 25.90838442 3.50292969 25.97827148 C5.15418854 26.00841591 5.15418854 26.00841591 6.83880615 26.03916931 C8.61242523 26.07972191 8.61242523 26.07972191 10.421875 26.12109375 C11.63699768 26.14470474 12.85212036 26.16831573 14.10406494 26.19264221 C17.98616351 26.2692318 21.86806026 26.35327693 25.75 26.4375 C28.38150053 26.49072536 31.01301092 26.54346573 33.64453125 26.59570312 C40.09647912 26.72484068 46.54827701 26.86010026 53 27 C53 26.01 53 25.02 53 24 C53.99 23.67 54.98 23.34 56 23 C56 22.01 56 21.02 56 20 C55.32792511 20.01474869 54.65585022 20.02949738 53.96340942 20.04469299 C46.98858536 20.19674249 40.01363841 20.34158343 33.03857422 20.48217773 C30.43306656 20.53565322 27.82759637 20.59098672 25.22216797 20.64819336 C21.48413168 20.72994957 17.746013 20.80509304 14.0078125 20.87890625 C12.25152023 20.91945885 12.25152023 20.91945885 10.45974731 20.96083069 C8.838293 20.99097511 8.838293 20.99097511 7.18408203 21.02172852 C6.22921906 21.04171402 5.27435608 21.06169952 4.29055786 21.08229065 C2 21 2 21 0 20 C0 13.4 0 6.8 0 0 Z " fill="#1A5871" transform="translate(51,94)"/>
<path d="M0 0 C0.33 0 0.66 0 1 0 C1.33 3.96 1.66 7.92 2 12 C2.33 12 2.66 12 3 12 C3 24.87 3 37.74 3 51 C3.99 46.05 4.98 41.1 6 36 C6.66 36.33 7.32 36.66 8 37 C7.67 39.97 7.34 42.94 7 46 C7.42410156 44.82566406 7.84820312 43.65132812 8.28515625 42.44140625 C8.87674529 40.81479154 9.46926435 39.1885149 10.0625 37.5625 C10.52970459 36.28088989 10.52970459 36.28088989 11.00634766 34.97338867 C13.3945923 28.48801757 15.96619115 22.09944613 18.77758789 15.78540039 C20.76664829 11.15775506 21.56413205 7.02365755 22 2 C20.68 1.67 19.36 1.34 18 1 C19.85625 1.2784375 19.85625 1.2784375 21.75 1.5625 C24.84444071 1.96707352 26.98348396 1.81213893 30 1 C30.66 1.66 31.32 2.32 32 3 C30.83658081 3.11952026 30.83658081 3.11952026 29.6496582 3.24145508 C26.91901598 3.73742491 26.91901598 3.73742491 25.64135742 5.78393555 C25.12859253 6.94856323 25.12859253 6.94856323 24.60546875 8.13671875 C24.21117676 9.01328125 23.81688477 9.88984375 23.41064453 10.79296875 C22.80518799 12.22576172 22.80518799 12.22576172 22.1875 13.6875 C21.75808105 14.66976562 21.32866211 15.65203125 20.88623047 16.6640625 C14.54578528 31.39510053 9.02859353 46.46871179 5 62 C4.67 61.34 4.34 60.68 4 60 C0.97065509 59.34227572 0.97065509 59.34227572 -2 59 C-1.01 58.505 -1.01 58.505 0 58 C0 38.86 0 19.72 0 0 Z " fill="#083750" transform="translate(61,28)"/>
<path d="M0 0 C5.61 0.33 11.22 0.66 17 1 C17 9.99481865 17 9.99481865 14.734375 15.265625 C14.25613281 16.40386719 13.77789062 17.54210937 13.28515625 18.71484375 C12.77855469 19.88144531 12.27195312 21.04804687 11.75 22.25 C8.12776936 30.73990016 4.76806819 39.18958849 2 48 C1.67 48 1.34 48 1 48 C1.12568359 46.67935547 1.12568359 46.67935547 1.25390625 45.33203125 C1.35574219 44.17058594 1.45757812 43.00914063 1.5625 41.8125 C1.66691406 40.66394531 1.77132812 39.51539063 1.87890625 38.33203125 C2.15518095 35.0991327 2.15518095 35.0991327 1.33984375 32.44921875 C0.84913874 28.91275849 2.33587021 27.15423293 4 24 C5.34318057 20.24429661 6.50995425 16.43542987 7.6875 12.625 C8.00783203 11.60277344 8.32816406 10.58054687 8.65820312 9.52734375 C9.44332509 7.01964077 10.22228084 4.51000869 11 2 C7.37 2 3.74 2 0 2 C0 1.34 0 0.68 0 0 Z " fill="#258CB4" transform="translate(66,29)"/>
<path d="M0 0 C14.85 0 29.7 0 45 0 C45 6.27 45 12.54 45 19 C44.67 19 44.34 19 44 19 C43.67 13.72 43.34 8.44 43 3 C22.705 2.505 22.705 2.505 2 2 C2 24.77 2 47.54 2 71 C1.34 71 0.68 71 0 71 C0 47.57 0 24.14 0 0 Z " fill="#35768F" transform="translate(59,15)"/>
<path d="M0 0 C5.41167017 4.7750031 10.35051441 10.6795089 11.44921875 17.98828125 C11.57238541 25.14142189 11.57238541 25.14142189 9 29 C9.01160156 28.18015625 9.02320313 27.3603125 9.03515625 26.515625 C9.04417969 25.43796875 9.05320313 24.3603125 9.0625 23.25 C9.07410156 22.18265625 9.08570313 21.1153125 9.09765625 20.015625 C9.01510087 17.46631499 8.74617558 15.42066409 8 13 C7.34 13 6.68 13 6 13 C6.05800781 13.73863281 6.11601563 14.47726563 6.17578125 15.23828125 C5.96893798 18.48801881 5.19065545 19.66771565 3.1875 22.1875 C2.66542969 22.86167969 2.14335938 23.53585938 1.60546875 24.23046875 C-3.4184078 29.76773414 -10.30601809 29.25024542 -17.25 29.625 C-18.49136719 29.70234375 -18.49136719 29.70234375 -19.7578125 29.78125 C-21.83659235 29.89711642 -23.91850955 29.95365102 -26 30 C-26.33 29.67 -26.66 29.34 -27 29 C-28.51469448 28.76807135 -30.03754562 28.58784762 -31.5625 28.4375 C-32.38878906 28.35371094 -33.21507813 28.26992187 -34.06640625 28.18359375 C-35.02353516 28.09271484 -35.02353516 28.09271484 -36 28 C-36 27.34 -36 26.68 -36 26 C-38.31 26 -40.62 26 -43 26 C-43 25.34 -43 24.68 -43 24 C-44.32 23.67 -45.64 23.34 -47 23 C-47 22.34 -47 21.68 -47 21 C-47.66 20.67 -48.32 20.34 -49 20 C-43.70788977 20.96038295 -38.62444596 22.53770479 -33.47265625 24.0625 C-23.64727844 26.71502044 -12.69160773 27.52422099 -3 24 C0.08617706 21.86341588 0.83889696 20.52626993 1.9375 16.9375 C2.01047779 12.33989906 0.98644803 8.70765008 -0.40625 4.35546875 C-1 2 -1 2 0 0 Z " fill="#1C5F7B" transform="translate(119,75)"/>
<path d="M0 0 C0.99 0 1.98 0 3 0 C3.0740421 5.09029944 3.12855008 10.18028692 3.16479492 15.27099609 C3.1799009 17.00347349 3.20038694 18.73591254 3.22631836 20.46826172 C3.26262321 22.95549978 3.27970765 25.44223326 3.29296875 27.9296875 C3.30845261 28.70682098 3.32393646 29.48395447 3.33988953 30.28463745 C3.34057617 32.46826172 3.34057617 32.46826172 3 36 C0 38 0 38 -3 38 C-3.21754505 33.80149475 -3.4142975 29.60267829 -3.59204102 25.40234375 C-3.65537439 23.97434628 -3.72433089 22.54658646 -3.79907227 21.11914062 C-3.90568447 19.06417248 -3.99187637 17.00919124 -4.07421875 14.953125 C-4.13182373 13.71723633 -4.18942871 12.48134766 -4.2487793 11.20800781 C-3.97639242 7.69558032 -3.30729461 6.55885966 -1 4 C-0.29485154 1.85266073 -0.29485154 1.85266073 0 0 Z " fill="#216B8A" transform="translate(113,62)"/>
<path d="M0 0 C0.33 0 0.66 0 1 0 C1.51950354 6.94536266 -0.12533022 11.4549259 -3.0625 17.6875 C-6.42162268 25.14140722 -9.39472547 32.60299342 -11.9375 40.375 C-12.21924072 41.23569092 -12.50098145 42.09638184 -12.79125977 42.9831543 C-14.2890918 47.63050902 -15.68796396 52.29695294 -17 57 C-17.99 57 -18.98 57 -20 57 C-17.52500904 37.30109239 -8.95587759 17.55827657 0 0 Z " fill="#6697AD" transform="translate(86,34)"/>
<path d="M0 0 C2.31 0 4.62 0 7 0 C7.33 2.97 7.66 5.94 8 9 C11.63 9 15.26 9 19 9 C19 9.33 19 9.66 19 10 C15.04 10 11.08 10 7 10 C6.731875 9.030625 6.46375 8.06125 6.1875 7.0625 C5.795625 6.051875 5.40375 5.04125 5 4 C4.01 3.67 3.02 3.34 2 3 C2.1141866 4.93816735 2.24173423 6.87555099 2.375 8.8125 C2.44460937 9.89144531 2.51421875 10.97039062 2.5859375 12.08203125 C2.81195733 15.18626186 2.81195733 15.18626186 5 18 C7.76628915 18.2667616 10.30619631 18.34804189 13.0703125 18.29296875 C13.86654022 18.28872391 14.66276794 18.28447906 15.48312378 18.28010559 C18.03075729 18.26328834 20.57760489 18.22563179 23.125 18.1875 C24.85024901 18.17245705 26.57551039 18.15876796 28.30078125 18.14648438 C32.53415782 18.11337501 36.76694559 18.06157285 41 18 C39.68 17.34 38.36 16.68 37 16 C44.00435592 16.6258645 51.00399099 17.28674095 58 18 C57.67 18.66 57.34 19.32 57 20 C49.203915 20.16795432 41.40769559 20.32789478 33.61132812 20.48217773 C30.9573186 20.53565453 28.30334584 20.59098812 25.64941406 20.64819336 C21.84187752 20.72994592 18.03426014 20.80509096 14.2265625 20.87890625 C13.03382721 20.90594131 11.84109192 20.93297638 10.61221313 20.96083069 C9.51122284 20.98092697 8.41023254 21.00102325 7.27587891 21.02172852 C6.30325104 21.04171402 5.33062317 21.06169952 4.32852173 21.08229065 C2 21 2 21 0 20 C0 13.4 0 6.8 0 0 Z " fill="#14506D" transform="translate(51,94)"/>
<path d="M0 0 C2.125 0.375 2.125 0.375 4 1 C3.67 2.98 3.34 4.96 3 7 C6.3 7 9.6 7 13 7 C13.495 18.385 13.495 18.385 14 30 C10.14993864 29.22998773 7.99223427 28.6738858 4.6875 26.9375 C3.99011719 26.57527344 3.29273438 26.21304688 2.57421875 25.83984375 C2.05472656 25.56269531 1.53523438 25.28554688 1 25 C4 24 4 24 7.1875 25.4375 C8.115625 25.953125 9.04375 26.46875 10 27 C9.835 26.21625 9.67 25.4325 9.5 24.625 C8.87902078 20.12290063 9 15.54472374 9 11 C-4.2 11.33 -17.4 11.66 -31 12 C-31 11.34 -31 10.68 -31 10 C-25.17928378 9.97535362 -19.35859766 9.9571657 -13.5378418 9.94506836 C-11.55606559 9.94002733 -9.57429311 9.93319462 -7.5925293 9.92456055 C-4.75047891 9.91248485 -1.90847753 9.90676955 0.93359375 9.90234375 C1.82525742 9.89718246 2.71692108 9.89202118 3.63560486 9.88670349 C5.75740601 9.88650823 7.8791078 9.9378997 10 10 C10.495 10.495 10.495 10.495 11 11 C11.33 10.01 11.66 9.02 12 8 C5.4 8 -1.2 8 -8 8 C-7.67 7.34 -7.34 6.68 -7 6 C-4.03 6.495 -4.03 6.495 -1 7 C-1.20625 6.21625 -1.4125 5.4325 -1.625 4.625 C-1.74875 3.75875 -1.8725 2.8925 -2 2 C-1.34 1.34 -0.68 0.68 0 0 Z " fill="#154358" transform="translate(92,7)"/>
<path d="M0 0 C0.66 0 1.32 0 2 0 C5.26123112 5.21032628 4.27827681 11.22949326 3 17 C1.19021961 19.64871648 -0.1185305 20.4122515 -3 22 C-3.66 22 -4.32 22 -5 22 C-5 9.96969697 -5 9.96969697 -1 5 C-0.21053391 2.31492671 -0.21053391 2.31492671 0 0 Z " fill="#2486AC" transform="translate(125,88)"/>
<path d="M0 0 C0.99 0.33 1.98 0.66 3 1 C4.23746694 4.71240082 4.54341681 8.14174065 4 12 C2.4375 14.5 2.4375 14.5 0 16 C-3.77282526 16.33094958 -6.40735548 16.19754817 -10 15 C-10 14.34 -10 13.68 -10 13 C-9.34 13 -8.68 13 -8 13 C-8 12.34 -8 11.68 -8 11 C-6.02 10.67 -4.04 10.34 -2 10 C-2.495 8.8553125 -2.495 8.8553125 -3 7.6875 C-4 5 -4 5 -4 2 C-2.68 2.33 -1.36 2.66 0 3 C0 2.01 0 1.02 0 0 Z " fill="#77BBD7" transform="translate(95,69)"/>
<path d="M0 0 C0.89504242 0.72229546 0.89504242 0.72229546 1.8081665 1.45918274 C4.52845682 3.37149509 6.02078202 3.36413727 9.31933594 3.34057617 C10.38013367 3.34034958 11.4409314 3.34012299 12.53387451 3.33988953 C13.67253967 3.32440567 14.81120483 3.30892181 15.984375 3.29296875 C17.15510559 3.28872391 18.32583618 3.28447906 19.53204346 3.28010559 C23.27159616 3.26331175 27.01061015 3.22565704 30.75 3.1875 C33.28514847 3.17245413 35.82030538 3.15876556 38.35546875 3.14648438 C44.57049633 3.11340585 50.78520968 3.06319883 57 3 C57 3.33 57 3.66 57 4 C56.41419662 4.01030746 55.82839325 4.02061493 55.22483826 4.03123474 C49.10869092 4.13970636 42.99267887 4.25426926 36.87670898 4.37231445 C34.59646444 4.4155334 32.31619025 4.45721728 30.03588867 4.49731445 C26.75169962 4.55533393 23.46765801 4.61893614 20.18359375 4.68359375 C19.16978134 4.70030624 18.15596893 4.71701874 17.11143494 4.73423767 C8.12930114 4.37268408 8.12930114 4.37268408 0.3125 7.5625 C-0.120625 8.036875 -0.55375 8.51125 -1 9 C-2.32 9 -3.64 9 -5 9 C-5.33 7.35 -5.66 5.7 -6 4 C-5.34 4 -4.68 4 -4 4 C-4 3.01 -4 2.02 -4 1 C-2.25 0.3125 -2.25 0.3125 0 0 Z " fill="#278BB3" transform="translate(50,111)"/>
<path d="M0 0 C3.465 1.485 3.465 1.485 7 3 C7 3.66 7 4.32 7 5 C6.01 5.495 6.01 5.495 5 6 C5 6.99 5 7.98 5 9 C4.34 9 3.68 9 3 9 C3 9.66 3 10.32 3 11 C4.134375 10.938125 5.26875 10.87625 6.4375 10.8125 C11.28257734 10.8038635 15.59575627 12.00803914 20 14 C20.66 14.66 21.32 15.32 22 16 C22.99 16.33 23.98 16.66 25 17 C28 18 28 18 30 20 C23.58008874 19.42934122 17.98410537 17.32655091 12 15 C12 14.34 12 13.68 12 13 C8.37 13 4.74 13 1 13 C-1.58064516 3.16129032 -1.58064516 3.16129032 0 0 Z " fill="#2B8CB1" transform="translate(58,90)"/>
<path d="M0 0 C0.17273438 0.64453125 0.34546875 1.2890625 0.5234375 1.953125 C1.92982628 4.40445882 1.92982628 4.40445882 5.4765625 4.609375 C6.858573 4.67581781 8.2416781 4.7219252 9.625 4.75 C10.33140625 4.77964844 11.0378125 4.80929688 11.765625 4.83984375 C13.50980047 4.91055357 15.25490827 4.95754035 17 5 C17.00410889 6.11971191 17.00821777 7.23942383 17.01245117 8.39306641 C17.03429358 12.56442719 17.08863545 16.73485154 17.15258789 20.90576172 C17.17572354 22.70775346 17.19015319 24.50987957 17.19555664 26.31201172 C17.20487904 28.90937603 17.24593792 31.50464001 17.29296875 34.1015625 C17.2890361 34.9017984 17.28510345 35.7020343 17.28105164 36.52651978 C17.43125301 42.34044095 18.87668512 44.89677085 23 49 C21.3125 49.8125 21.3125 49.8125 19 50 C16.4375 47.75 16.4375 47.75 14 45 C13.401875 44.401875 12.80375 43.80375 12.1875 43.1875 C11.795625 42.795625 11.40375 42.40375 11 42 C11.33 41.34 11.66 40.68 12 40 C12.99 40.99 13.98 41.98 15 43 C15 31.12 15 19.24 15 7 C11.37 7 7.74 7 4 7 C0.8125 5.5 0.8125 5.5 -1 4 C-0.67 2.68 -0.34 1.36 0 0 Z " fill="#052937" transform="translate(25,30)"/>
<path d="M0 0 C3.375 0.875 3.375 0.875 5.375 2.875 C5.5 5.5 5.5 5.5 5.375 7.875 C2.45791076 9.85862069 1.25119096 9.8626191 -2.375 9.5 C-3.4475 9.29375 -4.52 9.0875 -5.625 8.875 C-6.285 7.225 -6.945 5.575 -7.625 3.875 C-5.09785139 0.53916384 -4.30016242 -0.14828146 0 0 Z " fill="#174B61" transform="translate(17.625,27.125)"/>
<path d="M0 0 C0.33 0 0.66 0 1 0 C1.33 11.55 1.66 23.1 2 35 C3.98 35.99 5.96 36.98 8 38 C7.67 39.65 7.34 41.3 7 43 C6.77054688 42.39414062 6.54109375 41.78828125 6.3046875 41.1640625 C4.63114101 38.38818 3.04771365 37.71927482 0.125 36.375 C-0.73867187 35.97023437 -1.60234375 35.56546875 -2.4921875 35.1484375 C-3.73355469 34.57996094 -3.73355469 34.57996094 -5 34 C-6.33602144 33.33873686 -7.67039784 32.67407738 -9 32 C-8.34 31.67 -7.68 31.34 -7 31 C-6.34 31.33 -5.68 31.66 -5 32 C-5 22.1 -5 12.2 -5 2 C-4.67 2 -4.34 2 -4 2 C-4 11.9 -4 21.8 -4 32 C-2.68 32 -1.36 32 0 32 C0 21.44 0 10.88 0 0 Z " fill="#133F53" transform="translate(115,6)"/>
<path d="M0 0 C0 3.48961209 -0.90379374 5.11480295 -2.5 8.1875 C-2.9640625 9.08855469 -3.428125 9.98960938 -3.90625 10.91796875 C-4.2671875 11.60503906 -4.628125 12.29210938 -5 13 C-5.66 13 -6.32 13 -7 13 C-7.28875 14.0725 -7.5775 15.145 -7.875 16.25 C-8.72820109 19.09400364 -9.5636503 21.43508983 -11 24 C-11.66 24 -12.32 24 -13 24 C-12.11882551 17.69264576 -11.07212053 12.27515257 -7.8046875 6.75390625 C-6.72199787 4.71567856 -6.72199787 4.71567856 -7 1 C-3.535 0.505 -3.535 0.505 0 0 Z " fill="#537F90" transform="translate(120,49)"/>
<path d="M0 0 C0.66 0 1.32 0 2 0 C2.625 2.875 2.625 2.875 3 6 C1 8 1 8 -2.625 8.125 C-3.73875 8.08375 -4.8525 8.0425 -6 8 C-6 8.99 -6 9.98 -6 11 C-4.906875 11.061875 -3.81375 11.12375 -2.6875 11.1875 C1 12 1 12 3 14.3125 C4.05900595 17.1585785 4.12587689 18.23648399 3 21 C2.443125 20.01 1.88625 19.02 1.3125 18 C0.549375 17.01 -0.21375 16.02 -1 15 C-3.54190002 14.7499227 -3.54190002 14.7499227 -6 15 C-7.8125 13.8125 -7.8125 13.8125 -9 12 C-9.1875 9.3125 -9.1875 9.3125 -9 7 C-8.43410156 6.82984375 -7.86820313 6.6596875 -7.28515625 6.484375 C-6.18494141 6.12085937 -6.18494141 6.12085937 -5.0625 5.75 C-4.33160156 5.51796875 -3.60070313 5.2859375 -2.84765625 5.046875 C-0.79429444 4.1492447 -0.79429444 4.1492447 -0.24609375 1.890625 C-0.16488281 1.26671875 -0.08367188 0.6428125 0 0 Z " fill="#236F8D" transform="translate(41,99)"/>
<path d="M0 0 C2.31 0 4.62 0 7 0 C6.01 1.485 6.01 1.485 5 3 C4.75944532 5.05709596 4.75944532 5.05709596 4.875 7.1875 C4.91625 8.445625 4.9575 9.70375 5 11 C4.01 10.67 3.02 10.34 2 10 C2.33 11.65 2.66 13.3 3 15 C1.68 15 0.36 15 -1 15 C-2.50913724 10.47258828 -2.77429281 5.93573202 -1 1.5 C-0.67 1.005 -0.34 0.51 0 0 Z " fill="#77BAD3" transform="translate(82,66)"/>
<path d="M0 0 C2.48063781 12.48519362 2.48063781 12.48519362 1 19 C-0.875 18.4375 -0.875 18.4375 -3 17 C-4.6663175 12.66757451 -5.61696289 8.62722167 -5 4 C-1.73684211 0 -1.73684211 0 0 0 Z " fill="#258FB9" transform="translate(29,52)"/>
<path d="M0 0 C0.33 0.99 0.66 1.98 1 3 C-5.435 3.495 -5.435 3.495 -12 4 C-12 4.99 -12 5.98 -12 7 C-11.38511719 7.04898437 -10.77023438 7.09796875 -10.13671875 7.1484375 C-8.92435547 7.26058594 -8.92435547 7.26058594 -7.6875 7.375 C-6.48673828 7.47941406 -6.48673828 7.47941406 -5.26171875 7.5859375 C-3 8 -3 8 0 10 C0.1875 12.625 0.1875 12.625 0 15 C-0.20753906 14.35160156 -0.41507813 13.70320313 -0.62890625 13.03515625 C-1.08136719 12.36355469 -1.53382812 11.69195312 -2 11 C-4.78289451 10.40642397 -4.78289451 10.40642397 -7.9375 10.4375 C-13.56477029 10.32126234 -13.56477029 10.32126234 -15.89453125 8.6015625 C-17 7 -17 7 -16.75 4.9375 C-16 3 -16 3 -15 1 C-12.45058627 0.68758629 -9.99638487 0.48696579 -7.4375 0.375 C-6.72658203 0.33632812 -6.01566406 0.29765625 -5.28320312 0.2578125 C-3.52257575 0.16328217 -1.76132272 0.08054183 0 0 Z " fill="#175269" transform="translate(41,12)"/>
<path d="M0 0 C4.29 0.33 8.58 0.66 13 1 C12.41843252 6.04025152 11.31515546 10.43561777 9.625 15.25 C7.70201821 20.78868541 6.04762591 26.31723699 4.67578125 32.0234375 C4 34 4 34 2 35 C0.99305477 31.88762382 0.74627995 30.5010971 2.25 27.53125 C4.63082725 22.72708072 6.10717108 17.7387992 7.6875 12.625 C8.00783203 11.60277344 8.32816406 10.58054687 8.65820312 9.52734375 C9.44332509 7.01964077 10.22228084 4.51000869 11 2 C7.37 2 3.74 2 0 2 C0 1.34 0 0.68 0 0 Z " fill="#063048" transform="translate(66,29)"/>
<path d="M0 0 C1.76710643 6.98292056 2.29488099 11.68338334 -0.75 18.375 C-1.31184064 19.68536576 -1.87174454 20.99656365 -2.4296875 22.30859375 C-2.83719238 23.2519458 -2.83719238 23.2519458 -3.25292969 24.21435547 C-4.72679173 27.73717475 -5.85097101 31.3614082 -7 35 C-7.33 35 -7.66 35 -8 35 C-7.56368207 26.94577601 -5.70341791 19.59258178 -3.4375 11.875 C-2.9434668 10.15410156 -2.9434668 10.15410156 -2.43945312 8.3984375 C-1.63393963 5.59665142 -0.82067033 2.79737645 0 0 Z " fill="#2C84AA" transform="translate(75,42)"/>
<path d="M0 0 C7.00435592 0.6258645 14.00399099 1.28674095 21 2 C20.67 2.66 20.34 3.32 20 4 C2.84 4 -14.32 4 -32 4 C-32 3.67 -32 3.34 -32 3 C-20.12 2.67 -8.24 2.34 4 2 C2.68 1.34 1.36 0.68 0 0 Z " fill="#0C3344" transform="translate(88,110)"/>
<path d="M0 0 C2.4375 0.9375 2.4375 0.9375 3.875 3.3125 C4.060625 4.17875 4.24625 5.045 4.4375 5.9375 C2.4375 8.9375 2.4375 8.9375 -0.5 9.8125 C-3.5625 9.9375 -3.5625 9.9375 -5.5 8.8125 C-6.5625 6.9375 -6.5625 6.9375 -6.4375 4.375 C-5.19672674 0.9185602 -3.66654959 -0.08942804 0 0 Z " fill="#1D617E" transform="translate(22.5625,89.0625)"/>
<path d="M0 0 C0.33 0 0.66 0 1 0 C1.33 3.96 1.66 7.92 2 12 C2.33 12 2.66 12 3 12 C3.125 19.625 3.125 19.625 2 23 C1.84629652 25.72883073 1.74271735 28.43697142 1.68359375 31.16796875 C1.66281265 31.96278152 1.64203156 32.7575943 1.62062073 33.57649231 C1.55527913 36.11340763 1.49631192 38.65042573 1.4375 41.1875 C1.39430014 42.90821372 1.35068537 44.62891708 1.30664062 46.34960938 C1.19961352 50.56630113 1.09830276 54.7830962 1 59 C0.01 58.67 -0.98 58.34 -2 58 C-1.34 58 -0.68 58 0 58 C0 38.86 0 19.72 0 0 Z " fill="#011427" transform="translate(61,28)"/>
<path d="M0 0 C-0.61101562 0.27070312 -1.22203125 0.54140625 -1.8515625 0.8203125 C-4.44156725 2.24246056 -5.82221675 4.18060869 -7.640625 6.46484375 C-9.78995055 8.89209933 -12.16915497 10.46149727 -15 12 C-15.99 11.67 -16.98 11.34 -18 11 C-17.34 11 -16.68 11 -16 11 C-16 10.01 -16 9.02 -16 8 C-15.01 7.67 -14.02 7.34 -13 7 C-12.67 5.68 -12.34 4.36 -12 3 C-14.97 2.67 -17.94 2.34 -21 2 C-21 1.67 -21 1.34 -21 1 C-13.97360585 0.25194283 -7.06608191 -0.13794954 0 0 Z " fill="#1F6C8D" transform="translate(120,110)"/>
<path d="M0 0 C4.69239516 2.0110265 6.77001894 5.00027218 9.0546875 9.3828125 C10.66642007 13.8450473 10.72663494 18.3342388 10 23 C9.34 23.99 8.68 24.98 8 26 C8.01160156 25.18015625 8.02320313 24.3603125 8.03515625 23.515625 C8.04417969 22.43796875 8.05320313 21.3603125 8.0625 20.25 C8.07410156 19.18265625 8.08570313 18.1153125 8.09765625 17.015625 C8.01510087 14.46631499 7.74617558 12.42066409 7 10 C6.34 10 5.68 10 5 10 C5.0928125 11.175625 5.0928125 11.175625 5.1875 12.375 C5.125625 13.24125 5.06375 14.1075 5 15 C4.01 15.66 3.02 16.32 2 17 C2.03480469 15.91332031 2.03480469 15.91332031 2.0703125 14.8046875 C2.17018794 9.45421756 2.16455748 5.00553918 0 0 Z " fill="#1C607B" transform="translate(120,78)"/>
<path d="M0 0 C1 2 1 2 0.8125 5.625 C0.72793747 9.85312626 1.98903841 12.55102288 4.125 16.140625 C5 18 5 18 5 22 C4.01 22.33 3.02 22.66 2 23 C1.34 22.67 0.68 22.34 0 22 C0 22.99 0 23.98 0 25 C-1.9375 24.25 -1.9375 24.25 -4 23 C-4.75 20.875 -4.75 20.875 -5 19 C-3.68 19 -2.36 19 -1 19 C-1.01160156 17.71222656 -1.02320313 16.42445312 -1.03515625 15.09765625 C-1.0445327 13.41927228 -1.05363305 11.74088674 -1.0625 10.0625 C-1.07087891 9.21236328 -1.07925781 8.36222656 -1.08789062 7.48632812 C-1.09111328 6.67744141 -1.09433594 5.86855469 -1.09765625 5.03515625 C-1.10289307 4.2862915 -1.10812988 3.53742676 -1.11352539 2.76586914 C-1 1 -1 1 0 0 Z " fill="#1E708E" transform="translate(31,50)"/>
<path d="M0 0 C2.46800047 1.15173355 4.04783565 2.04783565 6 4 C6 5.65 6 7.3 6 9 C2.7 9.33 -0.6 9.66 -4 10 C-4 11.32 -4 12.64 -4 14 C-2.700625 14.12375 -1.40125 14.2475 -0.0625 14.375 C2.15234375 14.5859375 2.15234375 14.5859375 4 15 C4.33 15.66 4.66 16.32 5 17 C3.39667209 17.08121924 1.79215974 17.13929134 0.1875 17.1875 C-1.15248047 17.23970703 -1.15248047 17.23970703 -2.51953125 17.29296875 C-5 17 -5 17 -6.8125 15.65625 C-8.43567041 13.39235443 -8.2202914 11.71692729 -8 9 C-3.8794254 7.00214565 -0.54805635 6.82164485 4 7 C2.79618552 4.50638429 1.54571278 2.31856917 0 0 Z " fill="#093247" transform="translate(36,82)"/>
<path d="M0 0 C3.7935068 -0.35288435 5.55941253 -0.28393415 8.8125 1.8125 C11 4 11 4 12 7 C10 7 10 7 8.375 5.5 C7.92125 5.005 7.4675 4.51 7 4 C7 5.98 7 7.96 7 10 C3.22199132 9.46028447 1.28423889 8.04565185 -1 5 C-0.75 2.25 -0.75 2.25 0 0 Z " fill="#217393" transform="translate(31,72)"/>
<path d="M0 0 C0.99 0 1.98 0 3 0 C3 9.9 3 19.8 3 30 C2.34 30 1.68 30 1 30 C0.67 20.1 0.34 10.2 0 0 Z " fill="#298FB6" transform="translate(111,7)"/>
<path d="M0 0 C0.33 1.65 0.66 3.3 1 5 C0.01 4.67 -0.98 4.34 -2 4 C-1.67 4.5775 -1.34 5.155 -1 5.75 C0 8 0 8 0 12 C-1.98 12.33 -3.96 12.66 -6 13 C-6.33 9.37 -6.66 5.74 -7 2 C-2 0 -2 0 0 0 Z M-6 4 C-5 6 -5 6 -5 6 Z M-5 6 C-4.67 6.99 -4.34 7.98 -4 9 C-3.67 8.01 -3.34 7.02 -3 6 C-3.66 6 -4.32 6 -5 6 Z M-2 9 C-1 11 -1 11 -1 11 Z " fill="#25464F" transform="translate(93,67)"/>
<path d="M0 0 C3.96 0 7.92 0 12 0 C10.91266548 5.12600561 9.77362508 10.05918728 8 15 C6.74872094 11.45332822 7.27714947 9.27746562 8.4375 5.75 C8.86869141 4.41195312 8.86869141 4.41195312 9.30859375 3.046875 C9.53675781 2.37140625 9.76492187 1.6959375 10 1 C7.36 1 4.72 1 2 1 C2.061875 2.2375 2.12375 3.475 2.1875 4.75 C2.20362826 7.78211302 2.10651023 8.82248296 0.5 11.5 C0.005 11.995 -0.49 12.49 -1 13 C-1.07972012 8.2965127 -0.93491183 4.67455917 0 0 Z " fill="#2B819D" transform="translate(65,31)"/>
<path d="M0 0 C2.125 0.375 2.125 0.375 4 1 C3.67 2.98 3.34 4.96 3 7 C6.3 7 9.6 7 13 7 C13 7.33 13 7.66 13 8 C6.07 8 -0.86 8 -8 8 C-7.67 7.34 -7.34 6.68 -7 6 C-4.03 6.495 -4.03 6.495 -1 7 C-1.309375 5.824375 -1.309375 5.824375 -1.625 4.625 C-1.74875 3.75875 -1.8725 2.8925 -2 2 C-1.34 1.34 -0.68 0.68 0 0 Z " fill="#002332" transform="translate(92,7)"/>
<path d="M0 0 C4.98287932 0.39081406 8.65022018 1.55987961 13 4 C12.34 4.66 11.68 5.32 11 6 C8.69 5.34 6.38 4.68 4 4 C4 4.99 4 5.98 4 7 C2.35 7 0.7 7 -1 7 C-1.04254356 5.00045254 -1.04080783 2.99958364 -1 1 C-0.67 0.67 -0.34 0.34 0 0 Z " fill="#7BBFDA" transform="translate(88,31)"/>
<path d="M0 0 C1.2375 0.185625 2.475 0.37125 3.75 0.5625 C6.84444071 0.96707352 8.98348396 0.81213893 12 0 C12.66 0.66 13.32 1.32 14 2 C13.23300781 2.05027344 12.46601562 2.10054687 11.67578125 2.15234375 C8.77928675 2.75359603 8.77928675 2.75359603 7.41796875 5.50390625 C7.01191406 6.51324219 6.60585937 7.52257813 6.1875 8.5625 C5.76855469 9.57441406 5.34960938 10.58632813 4.91796875 11.62890625 C4.61503906 12.41136719 4.31210938 13.19382812 4 14 C3.34 13.34 2.68 12.68 2 12 C2.2421875 9.3984375 2.2421875 9.3984375 2.875 6.375 C3.07867187 5.37210938 3.28234375 4.36921875 3.4921875 3.3359375 C3.65976563 2.56507812 3.82734375 1.79421875 4 1 C2.68 0.67 1.36 0.34 0 0 Z " fill="#194356" transform="translate(79,29)"/>
<path d="M0 0 C0 6.27 0 12.54 0 19 C-0.33 19 -0.66 19 -1 19 C-1.33 13.72 -1.66 8.44 -2 3 C-9.26 2.67 -16.52 2.34 -24 2 C-24 1.67 -24 1.34 -24 1 C-21.6877867 0.82940192 -19.37520966 0.66373166 -17.0625 0.5 C-15.77472656 0.4071875 -14.48695312 0.314375 -13.16015625 0.21875 C-8.7788842 -0.01162675 -4.38732472 0 0 0 Z " fill="#347D97" transform="translate(104,15)"/>
<path d="M0 0 C2.97 0.495 2.97 0.495 6 1 C6.33 2.65 6.66 4.3 7 6 C5.02253397 6.73080266 3.01927511 7.39421747 1 8 C0.34 7.67 -0.32 7.34 -1 7 C-0.67 4.69 -0.34 2.38 0 0 Z " fill="#7DC3E2" transform="translate(114,43)"/>
<path d="M0 0 C5.94 0 11.88 0 18 0 C18 0.66 18 1.32 18 2 C14.00204108 2.95619733 10.29196078 3.1039592 6.1875 3.0625 C5.02605469 3.05347656 3.86460938 3.04445313 2.66796875 3.03515625 C1.78753906 3.02355469 0.90710938 3.01195312 0 3 C0 2.01 0 1.02 0 0 Z " fill="#2E89AE" transform="translate(69,9)"/>
<path d="M0 0 C0.99 0 1.98 0 3 0 C3 3.63 3 7.26 3 11 C1.68 10.67 0.36 10.34 -1 10 C-1.99 10.33 -2.98 10.66 -4 11 C-4.33 10.67 -4.66 10.34 -5 10 C-4.82364548 7.30917128 -4.38164079 4.67148554 -4 2 C-3.06576355 5.01031744 -2.95550089 5.86650268 -4 9 C-3.34 9 -2.68 9 -2 9 C-1.7834375 7.88625 -1.7834375 7.88625 -1.5625 6.75 C-1.09812508 4.47972261 -0.58136431 2.24240521 0 0 Z " fill="#1C404F" transform="translate(102,90)"/>
<path d="M0 0 C0 0.66 0 1.32 0 2 C1.32 2 2.64 2 4 2 C3.34 3.32 2.68 4.64 2 6 C-4.625 6.125 -4.625 6.125 -8 5 C-8 4.34 -8 3.68 -8 3 C-7.34 3 -6.68 3 -6 3 C-6 2.34 -6 1.68 -6 1 C-3.92446352 0.4465236 -2.15634036 0 0 0 Z " fill="#68A3B9" transform="translate(93,79)"/>
<path d="M0 0 C0.99 0 1.98 0 3 0 C3 11.88 3 23.76 3 36 C2.67 36 2.34 36 2 36 C2 25.44 2 14.88 2 4 C1.01 4 0.02 4 -1 4 C-0.67 2.68 -0.34 1.36 0 0 Z " fill="#13526B" transform="translate(113,62)"/>
<path d="M0 0 C0.33 0 0.66 0 1 0 C1.02887512 3.64581687 1.04675585 7.29160463 1.0625 10.9375 C1.07087891 11.97841797 1.07925781 13.01933594 1.08789062 14.09179688 C1.09111328 15.08115234 1.09433594 16.07050781 1.09765625 17.08984375 C1.10289307 18.00628662 1.10812988 18.92272949 1.11352539 19.86694336 C1 22 1 22 0 23 C0.99 23.99 1.98 24.98 3 26 C-0.91402949 24.73058503 -2.79072873 23.48832306 -5 20 C-4.34 20 -3.68 20 -3 20 C-3 19.34 -3 18.68 -3 18 C-2.34 18 -1.68 18 -1 18 C-0.505 9.09 -0.505 9.09 0 0 Z " fill="#297798" transform="translate(51,60)"/>
<path d="M0 0 C2.97 0.495 2.97 0.495 6 1 C6.33 2.32 6.66 3.64 7 5 C6.01 5.33 5.02 5.66 4 6 C4 5.34 4 4.68 4 4 C-3.92 3.67 -11.84 3.34 -20 3 C-20 2.67 -20 2.34 -20 2 C-10.1 1.505 -10.1 1.505 0 1 C0 0.67 0 0.34 0 0 Z " fill="#2B85A9" transform="translate(106,2)"/>
<path d="M0 0 C1.134375 0.020625 2.26875 0.04125 3.4375 0.0625 C2.25 3.5 2.25 3.5 0.4375 7.0625 C-2.25 8 -2.25 8 -4.5625 8.0625 C-4.60491723 5.72955225 -4.60342937 3.39547433 -4.5625 1.0625 C-3.5625 0.0625 -3.5625 0.0625 0 0 Z " fill="#7CC5E3" transform="translate(85.5625,65.9375)"/>
<path d="M0 0 C0 0.66 0 1.32 0 2 C-2.29629994 3.14814997 -4.07698086 3.30769809 -6.625 3.5625 C-7.85089844 3.68818359 -7.85089844 3.68818359 -9.1015625 3.81640625 C-10.04128906 3.90728516 -10.04128906 3.90728516 -11 4 C-11.33 4.99 -11.66 5.98 -12 7 C-10.68 7.33 -9.36 7.66 -8 8 C-9.66611905 8.042721 -11.33382885 8.04063832 -13 8 C-14 7 -14 7 -14.125 4.5 C-14 2 -14 2 -13 1 C-11.19303615 0.76506569 -9.3785882 0.58628226 -7.5625 0.4375 C-6.57378906 0.35371094 -5.58507812 0.26992188 -4.56640625 0.18359375 C-3.04692417 0.07489412 -1.52336516 0 0 0 Z " fill="#1E6B86" transform="translate(40,27)"/>
<path d="M0 0 C0 0.99 0 1.98 0 3 C-0.99 3 -1.98 3 -3 3 C-3 3.66 -3 4.32 -3 5 C-3.99 4.67 -4.98 4.34 -6 4 C-7.66362417 3.65179959 -9.32995171 3.31595508 -11 3 C-10.67 2.01 -10.34 1.02 -10 0 C-6.30581799 -1.231394 -3.7943739 -0.64432764 0 0 Z " fill="#6195AA" transform="translate(94,63)"/>
<path d="M0 0 C-1.24546405 3.73639216 -2.63404953 4.18756513 -6 6 C-6 5.34 -6 4.68 -6 4 C-8.9719385 5.12451727 -11.33440687 6.22293791 -14 8 C-12.56684975 4.38226397 -10.95412036 3.030893 -7.5625 1.1875 C-6.78003906 0.74792969 -5.99757813 0.30835938 -5.19140625 -0.14453125 C-3 -1 -3 -1 0 0 Z " fill="#0E2F3F" transform="translate(38,44)"/>
<path d="M0 0 C1.485 0.99 1.485 0.99 3 2 C2.67 2.99 2.34 3.98 2 5 C2.64900836 6.34201728 3.31755549 7.67467298 4 9 C4.265625 11.21875 4.265625 11.21875 4.25 13.5 C4.25515625 14.2528125 4.2603125 15.005625 4.265625 15.78125 C3.97250404 18.2296721 3.21816769 19.87304054 2 22 C1 20 1 20 1.625 17.0625 C2.41189324 12.51387323 0.97494723 8.6717101 -0.40625 4.35546875 C-1 2 -1 2 0 0 Z " fill="#072731" transform="translate(119,75)"/>
<path d="M0 0 C0.99 0 1.98 0 3 0 C2.31063929 3.91121498 1.21749819 7.55508596 -0.0625 11.3125 C-0.42472656 12.38113281 -0.78695312 13.44976562 -1.16015625 14.55078125 C-1.43730469 15.35902344 -1.71445313 16.16726562 -2 17 C-2.33 17 -2.66 17 -3 17 C-2.54775239 11.08507728 -1.8417395 5.64800112 0 0 Z " fill="#2D7A97" transform="translate(70,60)"/>
<path d="M0 0 C0.33 0 0.66 0 1 0 C0.22095672 10.55808656 0.22095672 10.55808656 -2 15 C-2.66 15 -3.32 15 -4 15 C-2.07289294 4.44191344 -2.07289294 4.44191344 0 0 Z " fill="#76ACC0" transform="translate(102,84)"/>
<path d="M0 0 C0.99 0.33 1.98 0.66 3 1 C3 1.99 3 2.98 3 4 C4.299375 4.12375 5.59875 4.2475 6.9375 4.375 C9.15234375 4.5859375 9.15234375 4.5859375 11 5 C11.33 5.66 11.66 6.32 12 7 C10.37536158 7.05395478 8.75021459 7.09277195 7.125 7.125 C6.22007813 7.14820312 5.31515625 7.17140625 4.3828125 7.1953125 C2 7 2 7 0 5 C-0.125 2.375 -0.125 2.375 0 0 Z " fill="#165268" transform="translate(29,92)"/>
<path d="M0 0 C6.0546875 -0.1953125 6.0546875 -0.1953125 8 0 C8.66 0.66 9.32 1.32 10 2 C10.99 2.33 11.98 2.66 13 3 C16 4 16 4 18 6 C11.58008874 5.42934122 5.98410537 3.32655091 0 1 C0 0.67 0 0.34 0 0 Z " fill="#144459" transform="translate(70,104)"/>
<path d="M0 0 C0.33 0.66 0.66 1.32 1 2 C1.66 2 2.32 2 3 2 C2.34 4.97 1.68 7.94 1 11 C0.01 11 -0.98 11 -2 11 C-1 3.57142857 -1 3.57142857 0 0 Z " fill="#5D8A9D" transform="translate(68,80)"/>
<path d="M0 0 C0.7425 0.45375 1.485 0.9075 2.25 1.375 C4.84618974 2.9820434 4.84618974 2.9820434 7.125 3.9375 C9.43104818 5.24426064 10.54313349 6.81470023 12 9 C10.3125 9.8125 10.3125 9.8125 8 10 C5.4375 7.75 5.4375 7.75 3 5 C2.401875 4.443125 1.80375 3.88625 1.1875 3.3125 C0 2 0 2 0 0 Z " fill="#052334" transform="translate(36,70)"/>
<path d="M0 0 C0.99 0.33 1.98 0.66 3 1 C3 2.65 3 4.3 3 6 C2.34 6 1.68 6 1 6 C1 6.66 1 7.32 1 8 C3.31 8.33 5.62 8.66 8 9 C8 9.33 8 9.66 8 10 C0.61538462 9.50769231 0.61538462 9.50769231 -2.5 6.9375 C-2.995 6.298125 -3.49 5.65875 -4 5 C-2.68 5 -1.36 5 0 5 C0 3.35 0 1.7 0 0 Z " fill="#2E5161" transform="translate(84,76)"/>
<path d="M0 0 C0.33 0 0.66 0 1 0 C1.06058594 0.64066406 1.12117188 1.28132813 1.18359375 1.94140625 C1.67209412 6.98423313 2.23779286 11.9912102 3 17 C0.39765489 13.98491736 -0.43953576 11.89591909 -0.75 7.9375 C-0.82734375 7.08027344 -0.9046875 6.22304688 -0.984375 5.33984375 C-1 3 -1 3 0 0 Z " fill="#11384A" transform="translate(23,52)"/>
<path d="M0 0 C0 3.69418201 -1.28179295 5.77836178 -3 9 C-3.99 9 -4.98 9 -6 9 C-5.33333333 6.33333333 -4.66666667 3.66666667 -4 1 C-2.68 0.67 -1.36 0.34 0 0 Z " fill="#5A8F9F" transform="translate(120,49)"/>
<path d="M0 0 C2.3431213 0.25561323 4.67843403 0.59270772 7 1 C7.33 1.66 7.66 2.32 8 3 C6.8553125 2.938125 6.8553125 2.938125 5.6875 2.875 C2.77281584 2.77919176 2.77281584 2.77919176 0 5 C-2.6875 5.125 -2.6875 5.125 -5 5 C-5 4.34 -5 3.68 -5 3 C-3.35 3 -1.7 3 0 3 C0 2.01 0 1.02 0 0 Z " fill="#4B808F" transform="translate(92,35)"/>
<path d="M0 0 C5.75 0.75 5.75 0.75 8 3 C8 3.99 8 4.98 8 6 C2.25 4.125 2.25 4.125 0 3 C0 2.01 0 1.02 0 0 Z " fill="#5D92A4" transform="translate(100,36)"/>
<path d="M0 0 C2.0625 0.4375 2.0625 0.4375 4 1 C3.67 2.65 3.34 4.3 3 6 C1.35 5.67 -0.3 5.34 -2 5 C-1.125 1.125 -1.125 1.125 0 0 Z " fill="#1A5167" transform="translate(92,7)"/>
<path d="M0 0 C2.97 0 5.94 0 9 0 C11 4 11 4 10.625 6.25 C10.41875 6.8275 10.2125 7.405 10 8 C9.443125 7.01 8.88625 6.02 8.3125 5 C6.34311033 1.71893347 6.34311033 1.71893347 3.25 1.625 C2.13625 1.810625 2.13625 1.810625 1 2 C0.67 1.34 0.34 0.68 0 0 Z " fill="#18546C" transform="translate(34,112)"/>
<path d="M0 0 C0.33 1.65 0.66 3.3 1 5 C0.05125 4.979375 -0.8975 4.95875 -1.875 4.9375 C-4.90666283 4.77448174 -4.90666283 4.77448174 -7 6 C-6.67 4.35 -6.34 2.7 -6 1 C-3.92446352 0.4465236 -2.15634036 0 0 0 Z " fill="#1A3942" transform="translate(93,67)"/>
<path d="M0 0 C1 2 1 2 0.9375 5.6875 C0.86947707 9.8217823 1.69654389 13.08963168 3 17 C2.34 17 1.68 17 1 17 C-1.40503353 13.3924497 -1.2396541 11.65163611 -1.1875 7.375 C-1.18105469 6.20710938 -1.17460937 5.03921875 -1.16796875 3.8359375 C-1 1 -1 1 0 0 Z " fill="#0A364B" transform="translate(31,50)"/>
<path d="M0 0 C3.51705958 0.65271556 6.89325077 1.51393024 10.3125 2.5625 C11.19550781 2.83191406 12.07851562 3.10132812 12.98828125 3.37890625 C13.65214844 3.58386719 14.31601563 3.78882812 15 4 C15 4.33 15 4.66 15 5 C13.20793453 4.85915204 11.41635083 4.71216299 9.625 4.5625 C8.62726563 4.48128906 7.62953125 4.40007812 6.6015625 4.31640625 C4 4 4 4 2 3 C2 2.34 2 1.68 2 1 C1.34 0.67 0.68 0.34 0 0 Z " fill="#12445C" transform="translate(70,95)"/>
<path d="M0 0 C0.66 0.33 1.32 0.66 2 1 C1.71872579 2.48117801 1.42466268 3.95993249 1.125 5.4375 C0.96257812 6.26121094 0.80015625 7.08492187 0.6328125 7.93359375 C0.42398438 8.61550781 0.21515625 9.29742187 0 10 C-0.99 10.495 -0.99 10.495 -2 11 C-3.14947895 7.44706507 -3.0868937 6.20023331 -1.5625 2.6875 C-1.046875 1.800625 -0.53125 0.91375 0 0 Z " fill="#0E4768" transform="translate(70,53)"/>
<path d="M0 0 C1.91903365 2.8221083 1.99110212 4.12901932 1.75 7.625 C1 11 1 11 -1 13 C-1.07654536 8.48382401 -1.10228696 4.40914783 0 0 Z " fill="#1C607A" transform="translate(65,31)"/>
<path d="M0 0 C1.98 0 3.96 0 6 0 C6 1.32 6 2.64 6 4 C4.02 4 2.04 4 0 4 C0 2.68 0 1.36 0 0 Z " fill="#2292BC" transform="translate(14,30)"/>
<path d="M0 0 C0.66 0.33 1.32 0.66 2 1 C-0.0625 3.5 -0.0625 3.5 -3 6 C-6.8125 6.3125 -6.8125 6.3125 -10 6 C-9.46375 5.7525 -8.9275 5.505 -8.375 5.25 C-5.43575748 3.70303025 -2.74245592 1.86985631 0 0 Z " fill="#1E6584" transform="translate(119,97)"/>
<path d="M0 0 C0.66 0 1.32 0 2 0 C2 2.64 2 5.28 2 8 C1.01 8.33 0.02 8.66 -1 9 C-0.67 6.03 -0.34 3.06 0 0 Z " fill="#6AA0B4" transform="translate(70,73)"/>
<path d="M0 0 C3.16717283 1.58358642 4.73268318 2.45263699 6.3125 5.6875 C6.539375 6.450625 6.76625 7.21375 7 8 C4.625 7.375 4.625 7.375 2 6 C0.6875 2.875 0.6875 2.875 0 0 Z " fill="#21556E" transform="translate(120,78)"/>
<path d="M0 0 C0.99 0 1.98 0 3 0 C3 3.96 3 7.92 3 12 C2.67 12 2.34 12 2 12 C2 9.36 2 6.72 2 4 C1.01 4 0.02 4 -1 4 C-0.67 2.68 -0.34 1.36 0 0 Z " fill="#17475A" transform="translate(113,62)"/>
<path d="M0 0 C2.31 0.33 4.62 0.66 7 1 C6.25 5.75 6.25 5.75 4 8 C3.06576355 4.98968256 2.95550089 4.13349732 4 1 C2.68 0.67 1.36 0.34 0 0 Z " fill="#1D5C76" transform="translate(79,29)"/>
<path d="M0 0 C2.475 0.495 2.475 0.495 5 1 C5 1.66 5 2.32 5 3 C5.66 3.33 6.32 3.66 7 4 C5.02 4.33 3.04 4.66 1 5 C0.67 3.35 0.34 1.7 0 0 Z " fill="#288CB4" transform="translate(67,95)"/>
<path d="M0 0 C2.475 0.495 2.475 0.495 5 1 C5.33 2.65 5.66 4.3 6 6 C5.01 6.495 5.01 6.495 4 7 C3.67 5.35 3.34 3.7 3 2 C2.01 2 1.02 2 0 2 C0 1.34 0 0.68 0 0 Z " fill="#7AB9D2" transform="translate(115,43)"/>
<path d="M0 0 C0.66 0.66 1.32 1.32 2 2 C1.01 4.97 0.02 7.94 -1 11 C-1.33 11 -1.66 11 -2 11 C-1.125 3.375 -1.125 3.375 0 0 Z " fill="#043653" transform="translate(73,43)"/>
<path d="M0 0 C0.66 0 1.32 0 2 0 C2 2.31 2 4.62 2 7 C1.01 7.33 0.02 7.66 -1 8 C-1 5.16032769 -0.59732819 2.76264289 0 0 Z " fill="#2491BD" transform="translate(125,88)"/>
<path d="M0 0 C0.99 0.66 1.98 1.32 3 2 C3 2.66 3 3.32 3 4 C4.45833358 5.62514468 4.45833358 5.62514468 6 7 C2.08597051 5.73058503 0.20927127 4.48832306 -2 1 C-1.34 0.67 -0.68 0.34 0 0 Z " fill="#05222E" transform="translate(48,79)"/>
<path d="M0 0 C1.25541557 3.76624671 0.37061958 5.37188934 -1 9 C-1.33 9 -1.66 9 -2 9 C-2.33 6.36 -2.66 3.72 -3 1 C-2.01 0.67 -1.02 0.34 0 0 Z " fill="#547C8E" transform="translate(74,69)"/>
<path d="M0 0 C0.33 0.66 0.66 1.32 1 2 C1.66 2 2.32 2 3 2 C2.34 4.31 1.68 6.62 1 9 C-0.61949011 6.42786866 -1.04408751 5.32330841 -0.625 2.25 C-0.41875 1.5075 -0.2125 0.765 0 0 Z " fill="#558696" transform="translate(77,54)"/>
<path d="M0 0 C1.65 0 3.3 0 5 0 C5 1.32 5 2.64 5 4 C3.35 3.67 1.7 3.34 0 3 C0 2.01 0 1.02 0 0 Z " fill="#2491BF" transform="translate(31,72)"/>
<path d="M0 0 C0.33 0 0.66 0 1 0 C1 2.31 1 4.62 1 7 C0.01 7 -0.98 7 -2 7 C-1.125 1.125 -1.125 1.125 0 0 Z " fill="#6FA0B4" transform="translate(80,49)"/>
<path d="M0 0 C1.32 0 2.64 0 4 0 C3.67 1.32 3.34 2.64 3 4 C1.68 4.33 0.36 4.66 -1 5 C-0.67 3.35 -0.34 1.7 0 0 Z " fill="#2A83A5" transform="translate(79,30)"/>
</svg>
